<svg xmlns="http://www.w3.org/2000/svg" width="16.748" height="16.748" viewBox="0 0 16.748 16.748"><path d="M9.757,1.4H8.99a1.923,1.923,0,0,0-3.7,0H4.523A.527.527,0,0,0,4,1.919V2.966A1.227,1.227,0,0,0,5.221,4.187H9.059a1.227,1.227,0,0,0,1.221-1.221V1.919A.527.527,0,0,0,9.757,1.4Z" transform="translate(-1.209)" fill="#fff"/><path d="M9.944,3H9.77v.872A1.918,1.918,0,0,1,7.851,5.791H4.013A1.918,1.918,0,0,1,2.094,3.872V3H1.919A1.918,1.918,0,0,0,0,4.919v8.723a1.918,1.918,0,0,0,1.919,1.919h4.6a6.1,6.1,0,0,1-.579-2.442H2.617a.523.523,0,0,1,0-1.047H5.994A6.387,6.387,0,0,1,6.3,10.851H2.617a.523.523,0,0,1,0-1.047H6.8a6.073,6.073,0,0,1,.97-1.221H2.617a.523.523,0,0,1,0-1.047H9.2a6.017,6.017,0,0,1,2.659-.691V4.919A1.918,1.918,0,0,0,9.944,3Z" transform="translate(0 -0.906)" fill="#fff"/><path d="M15.21,10.5a4.71,4.71,0,1,0,4.71,4.71A4.716,4.716,0,0,0,15.21,10.5Zm2.269,3.775-2.442,2.791a.7.7,0,0,1-.5.238h-.023a.7.7,0,0,1-.493-.2l-1.4-1.4a.7.7,0,0,1,.987-.987l.868.868,1.951-2.23a.7.7,0,1,1,1.05.92Z" transform="translate(-3.173 -3.173)" fill="#fff"/></svg>